<?xml version="1.0" encoding="UTF-8"?>
<svg width="130px" height="130px" viewBox="0 0 130 130" version="1.1" xmlns="http://www.w3.org/2000/svg" xmlns:xlink="http://www.w3.org/1999/xlink">
    <!-- Generator: Sketch 51.2 (57519) - http://www.bohemiancoding.com/sketch -->
    <title>favicon</title>
    <desc>Created with Sketch.</desc>
    <defs></defs>
    <g id="Page-1" stroke="none" stroke-width="1" fill="none" fill-rule="evenodd">
        <g id="noun_Drum_135575_000000" transform="translate(20.000000, 20.000000)" fill="#000000" fill-rule="nonzero">
            <path d="M89.3,11.7 C88.3,10.7 86.7,10.7 85.8,11.7 L72.5,25 C65,22.5 55.5,21 45,21 C19.3,21 0,29.6 0,41 L0,71 C0,71 0,71.1 0,71.1 C0,71.1 0,71.2 0,71.2 C0.2,82.5 19.5,91 45,91 C70.5,91 89.8,82.5 90,71.2 C90,71.2 90,71.1 90,71.1 C90,71.1 90,71 90,71 L90,41 C90,35.4 85.3,30.5 77.6,26.9 L89.3,15.2 C90.2,14.3 90.2,12.7 89.3,11.7 C88.3,10.8 90.2,12.7 89.3,11.7 Z M5,71.1 L6.5,60.6 L11.1,78.7 C7.3,76.3 5.1,73.7 5,71.1 Z M10,53.8 C14,56 19,57.7 24.7,58.9 L15.7,76.3 L10,53.8 Z M18.5,82 L28.5,62.5 L40.8,85.9 C32,85.6 24.4,84.1 18.5,82 Z M33,60.3 C36.8,60.7 40.8,61 45,61 C49.2,61 53.2,60.8 57,60.3 L45,83.1 L33,60.3 Z M49.2,85.9 L61.5,62.5 L71.5,82 C65.6,84.1 58,85.6 49.2,85.9 Z M65.3,59 C71.1,57.8 76.1,56 80,53.9 L74.2,76.4 L65.3,59 Z M78.8,78.7 L83.4,60.6 L85,71.1 C84.9,73.7 82.7,76.3 78.8,78.7 Z M85,41 C85,48.1 68.6,56 45,56 C21.4,56 5,48.1 5,41 C5,33.9 21.4,26 45,26 C54.1,26 62,27.2 68.5,29 L58.2,39.2 C55.9,41.5 59.5,45 61.7,42.7 L73.7,30.7 C80.9,33.7 85,37.4 85,41 Z" id="Shape"></path>
            <path d="M36.8,15.9 C39.9,16.8 41.3,12 38.2,11.1 L3.2,1.1 C0.1,0.2 -1.3,5 1.8,5.9 L36.8,15.9 Z" id="Shape"></path>
        </g>
    </g>
</svg>