<?xml version="1.0" encoding="UTF-8"?>
<svg width="48px" height="48px" viewBox="0 0 48 48" version="1.1" xmlns="http://www.w3.org/2000/svg" xmlns:xlink="http://www.w3.org/1999/xlink">
    <!-- Generator: Sketch 51.2 (57519) - http://www.bohemiancoding.com/sketch -->
    <title>connection icon copy</title>
    <desc>Created with Sketch.</desc>
    <defs></defs>
    <g id="Page-1" stroke="none" stroke-width="1" fill="none" fill-rule="evenodd">
        <g id="Artboard" transform="translate(-78.000000, -88.000000)" fill="#000000">
            <g id="Logo" transform="translate(78.000000, 88.000000)">
                <g id="connection-icon">
                    <g id="noun_connections_1207551_000000">
                        <path d="M30.6661224,24 C30.6661224,20.3920342 27.6815978,17.4672 24,17.4672 C20.3184022,17.4672 17.3338776,20.3920342 17.3338776,24 C17.3338776,27.6079658 20.3184022,30.5328 24,30.5328 C27.6793608,30.5275129 30.6607275,27.6057736 30.6661224,24 Z M24,27.6528 C21.9414431,27.6528 20.2726531,26.0173857 20.2726531,24 C20.2726531,21.9826143 21.9414431,20.3472 24,20.3472 C26.0585569,20.3472 27.7273469,21.9826143 27.7273469,24 C27.7246487,26.0162894 26.0574382,27.6501557 24,27.6528 Z" id="Shape" fill-rule="nonzero"></path>
                        <path d="M24,15.2208 C24.8115204,15.2208 25.4693878,14.57609 25.4693878,13.7808 L25.4693878,9.3216 C27.6238148,8.6156014 28.9382315,6.48303749 28.5732881,4.28570397 C28.2083447,2.08837046 26.2716826,0.474378674 24,0.474378674 C21.7283174,0.474378674 19.7916553,2.08837046 19.4267119,4.28570397 C19.0617685,6.48303749 20.3761852,8.6156014 22.5306122,9.3216 L22.5306122,13.7808 C22.5306122,14.57609 23.1884796,15.2208 24,15.2208 Z M24,3.36 C24.9359536,3.36 25.6946939,4.10356549 25.6946939,5.0208 C25.6946939,5.93803451 24.9359536,6.6816 24,6.6816 C23.0640464,6.6816 22.3053061,5.93803451 22.3053061,5.0208 C22.3053061,4.10356549 23.0640464,3.36 24,3.36 Z" id="Shape" fill-rule="nonzero"></path>
                        <path d="M25.4693878,38.6784 L25.4693878,34.2192 C25.4693877,33.42391 24.8115204,32.7792001 24,32.7792001 C23.1884796,32.7792001 22.5306123,33.42391 22.5306122,34.2192 L22.5306122,38.6784 C20.3761852,39.3843986 19.0617685,41.5169625 19.4267119,43.714296 C19.7916553,45.9116295 21.7283174,47.5256213 24,47.5256213 C26.2716826,47.5256213 28.2083447,45.9116295 28.5732881,43.714296 C28.9382315,41.5169625 27.6238148,39.3843986 25.4693878,38.6784 Z M24,44.64 C23.0640464,44.64 22.3053061,43.8964345 22.3053061,42.9792 C22.3053061,42.0619655 23.0640464,41.3184 24,41.3184 C24.9359536,41.3184 25.6946939,42.0619655 25.6946939,42.9792 C25.6946939,43.8964345 24.9359536,44.64 24,44.64 Z" id="Shape" fill-rule="nonzero"></path>
                        <path d="M37.7142857,15.1152 C39.7853959,15.1166148 41.6059331,13.7708762 42.173566,11.818906 C42.7411989,9.86693588 41.9180523,7.78285785 40.1573253,6.71410071 C38.3965982,5.64534356 36.1259624,5.85150298 34.5955594,7.21907398 C33.0651565,8.58664499 32.6467135,10.7834515 33.5706122,12.6 L30.3526531,15.7536 C29.9595366,16.1125835 29.7977159,16.6532266 29.9306732,17.1634347 C30.0636306,17.6736428 30.4701604,18.0720421 30.9907809,18.2023402 C31.5114014,18.3326384 32.063078,18.1740541 32.4293878,17.7888 L35.6473469,14.6352 C36.289163,14.9497341 36.9966943,15.1140423 37.7142857,15.1152 Z M36.5142857,9.4032 C36.9987914,8.92776724 37.7278821,8.78528076 38.3614161,9.04221457 C38.99495,9.29914838 39.4080871,9.90487279 39.4080871,10.5768 C39.4080871,11.2487272 38.99495,11.8544516 38.3614161,12.1113854 C37.7278821,12.3683192 36.9987914,12.2258328 36.5142857,11.7504 C36.1937885,11.4415476 36.0120624,11.020284 36.0093048,10.5797919 C36.0065473,10.1392998 36.1829856,9.7158828 36.4995918,9.4032 L36.5142857,9.4032 Z" id="Shape" fill-rule="nonzero"></path>
                        <path d="M17.6669388,30.2064 C17.0932554,29.6448895 16.1638874,29.6448895 15.5902041,30.2064 L12.3673469,33.36 C10.5859899,32.4918487 8.43808428,32.8336613 7.02857143,34.2096 C5.35390459,35.8487426 5.20904724,38.4613028 6.69261967,40.2686243 C8.17619211,42.0759458 10.8112117,42.4969576 12.8037316,41.2450308 C14.7962516,39.9931039 15.5056577,37.4707448 14.4489796,35.3952 L17.6669388,32.2416 C18.2399087,31.6793903 18.2399087,30.7686097 17.6669388,30.2064 Z M11.5004082,38.5968 C11.0780668,39.0416647 10.4415385,39.2249855 9.84075072,39.0747832 C9.2399629,38.9245809 8.77083583,38.4648364 8.61756816,37.8760643 C8.4643005,37.2872922 8.65136258,36.6634946 9.10530612,36.2496 C9.77314524,35.6406807 10.8129867,35.65905 11.4579985,36.2911615 C12.1030102,36.923273 12.1217544,37.9423177 11.5004082,38.5968 Z" id="Shape" fill-rule="nonzero"></path>
                        <path d="M35.6277551,33.36 L32.4097959,30.2064 C31.830838,29.677711 30.928634,29.693311 30.3690675,30.2416861 C29.809501,30.7900613 29.7935826,31.6742213 30.3330612,32.2416 L33.5510204,35.3952 C32.6651517,37.1409299 33.0139401,39.2458774 34.4179592,40.6272 C36.0896272,42.2707372 38.7568239,42.4146012 40.6024467,40.9607806 C42.4480695,39.5069601 42.8781789,36.9233087 41.5997507,34.9700114 C40.3213226,33.0167141 37.7457678,32.3223611 35.6277551,33.36 Z M38.8897959,38.592 C38.4052902,39.0674328 37.6761995,39.2099192 37.0426656,38.9529854 C36.4091316,38.6960516 35.9959945,38.0903272 35.9959945,37.4184 C35.9959945,36.7464728 36.4091316,36.1407484 37.0426656,35.8838146 C37.6761995,35.6268808 38.4052902,35.7693672 38.8897959,36.2448 C39.2092856,36.5557544 39.3893646,36.9785292 39.3902835,37.4198039 C39.3912024,37.8610786 39.2128858,38.2845702 38.8946939,38.5968 L38.8897959,38.592 Z" id="Shape" fill-rule="nonzero"></path>
                        <path d="M13.5820408,7.368 C11.9104006,5.72613125 9.24483454,5.58275784 7.39988175,7.03547879 C5.55492896,8.48819974 5.12366869,11.0700228 6.3996741,13.0234155 C7.6756795,14.9768082 10.2487654,15.6738321 12.3673469,14.64 L15.5853061,17.7936 C16.164264,18.322289 17.066468,18.306689 17.6260345,17.7583139 C18.1856011,17.2099387 18.2015194,16.3257787 17.6620408,15.7584 L14.4489796,12.6048 C15.3419562,10.8585398 14.9925655,8.74802256 13.5820408,7.368 Z M9.11020408,11.7504 C8.62506861,11.2755844 8.47967424,10.5610755 8.7418516,9.94021225 C9.00402896,9.31934899 9.62211509,8.91447461 10.3077551,8.91447461 C10.9933951,8.91447461 11.6114812,9.31934899 11.8736586,9.94021225 C12.135836,10.5610755 11.9904416,11.2755844 11.5053061,11.7504 C11.1893167,12.0664553 10.7568136,12.24456 10.3053061,12.24456 C9.8537986,12.24456 9.42129556,12.0664553 9.10530612,11.7504 L9.11020408,11.7504 Z" id="Shape" fill-rule="nonzero"></path>
                        <path d="M43.3665306,19.4592 C41.3691485,19.4548421 39.5932236,20.7040671 38.9583673,22.56 L34.4277551,22.56 C33.6162347,22.56 32.9583673,23.20471 32.9583673,24 C32.9583673,24.79529 33.6162347,25.44 34.4277551,25.44 L38.9779592,25.44 C39.7298286,27.6327484 42.0449706,28.9197626 44.3512577,28.4270788 C46.6575449,27.934395 48.2160649,25.8198643 47.9684843,23.5193865 C47.7209038,21.2189087 45.7465451,19.4695348 43.3861224,19.4592 L43.3665306,19.4592 Z M43.3665306,25.6608 C42.430577,25.6608 41.6718367,24.9172345 41.6718367,24 C41.6718367,23.0827655 42.430577,22.3392 43.3665306,22.3392 C44.3024842,22.3392 45.0612245,23.0827655 45.0612245,24 C45.0612245,24.9172345 44.3024842,25.6608 43.3665306,25.6608 Z" id="Shape" fill-rule="nonzero"></path>
                        <path d="M-3.75384673e-16,24 C-0.00640831862,26.2285518 1.64004889,28.1315561 3.88451742,28.4897938 C6.12898596,28.8480314 8.30653119,27.5553728 9.02204082,25.44 L13.5722449,25.44 C14.3837653,25.44 15.0416327,24.79529 15.0416327,24 C15.0416327,23.20471 14.3837653,22.56 13.5722449,22.56 L9.02204082,22.56 C8.30653119,20.4446272 6.12898596,19.1519686 3.88451742,19.5102062 C1.64004889,19.8684439 -0.00640831862,21.7714482 -3.75384673e-16,24 Z M6.32816327,24 C6.32816327,24.9172345 5.56942297,25.6608 4.63346939,25.6608 C3.6975158,25.6608 2.93877551,24.9172345 2.93877551,24 C2.93877551,23.0827655 3.6975158,22.3392 4.63346939,22.3392 C5.56750963,22.3418456 6.32326921,23.0846367 6.32326531,24 L6.32816327,24 Z" id="Shape" fill-rule="nonzero"></path>
                        <path d="M24.6122449,22.56 L23.3877551,22.56 C22.5762347,22.56 21.9183674,23.20471 21.9183674,24 C21.9183674,24.79529 22.5762347,25.44 23.3877551,25.44 L24.6122449,25.44 C25.4237653,25.44 26.0816327,24.79529 26.0816327,24 C26.0816327,23.20471 25.4237653,22.56 24.6122449,22.56 Z" id="Shape" fill-rule="nonzero"></path>
                    </g>
                </g>
            </g>
        </g>
    </g>
</svg>